<svg id="Layer_1" enable-background="new 0 0 32 32" height="512" viewBox="0 0 32 32" width="512" xmlns="http://www.w3.org/2000/svg"><g transform="translate(4, 4)"><path fill="#ffffff" d="m15 16c-.3 0-.5-.1-.7-.3-.4-.4-.4-1 0-1.4l6-6c.4-.4 1-.4 1.4 0s.4 1 0 1.4l-6 6c-.2.2-.4.3-.7.3z"/><path fill="#ffffff" d="m21 16c-.3 0-.5-.1-.7-.3l-6-6c-.4-.4-.4-1 0-1.4s1-.4 1.4 0l6 6c.4.4.4 1 0 1.4-.2.2-.4.3-.7.3z"/><path fill="#ffffff" d="m14.9 21.5c-.2 0-.5-.1-.7-.3l-5.6-5.2h-1.6c-1.7 0-3-1.3-3-3v-2c0-1.7 1.3-3 3-3h1.6l5.6-5.2c.4-.4 1-.3 1.4.1s.3 1-.1 1.4l-5.8 5.4c-.2.2-.4.3-.7.3h-2c-.6 0-1 .4-1 1v2c0 .6.4 1 1 1h2c.3 0 .5.1.7.3l5.9 5.5c.4.4.4 1 .1 1.4-.2.2-.5.3-.8.3z"/></g></svg>