<svg id="Layer_1" enable-background="new 0 0 32 32" height="512" viewBox="0 0 32 32" width="512" xmlns="http://www.w3.org/2000/svg"><g transform="translate(4, 4)"><path fill="#ffffff" d="m8.2 22h-2.4c-1.6 0-2.8-1.4-2.8-3.2v-13.6c0-1.8 1.2-3.2 2.8-3.2h2.4c1.6 0 2.8 1.4 2.8 3.2v13.6c0 1.8-1.2 3.2-2.8 3.2zm-2.4-18c-.4 0-.8.5-.8 1.2v13.6c0 .7.4 1.2.8 1.2h2.4c.4 0 .8-.5.8-1.2v-13.6c0-.7-.4-1.2-.8-1.2z"/><path fill="#ffffff" d="m18.2 22h-2.4c-1.5 0-2.8-1.4-2.8-3.2v-13.6c0-1.8 1.2-3.2 2.8-3.2h2.4c1.6 0 2.8 1.4 2.8 3.2v13.6c0 1.8-1.2 3.2-2.8 3.2zm-2.4-18c-.4 0-.8.5-.8 1.2v13.6c0 .7.4 1.2.8 1.2h2.4c.4 0 .8-.5.8-1.2v-13.6c0-.7-.4-1.2-.8-1.2z"/></g></svg>